<svg width="497" height="542" viewBox="0 0 497 542" fill="none" xmlns="http://www.w3.org/2000/svg">
    <g clip-path="url(#clip0_1837_5216)">
        <path d="M315.899 29.7737C312.071 32.0203 309.598 35.9711 307.501 39.8903C293.205 66.4509 288.759 98.1938 295.115 127.701M317.623 145.949C319.585 140.644 330.121 103.373 329.295 75.5388C328.957 64.1108 327.242 45.1984 325.48 42.7735C324.53 41.4461 325.587 30.1014 315.64 28.3781C308.057 27.0677 301.745 29.9847 299.967 30.7756C273.535 42.0962 224.152 12.1448 174.222 27.8746C165.591 30.6009 149.174 37.1226 131.62 47.6423C126.378 50.8034 120.384 54.4023 115.275 58.605C95.5397 74.8175 89.6672 99.2905 86.2066 114.498C73.0315 172.509 41.5695 199.564 39.4004 221.031C37.4204 240.577 63.7997 256.8 70.4735 261.221C74.6665 264.002 78.0036 263.558 89.8129 269.901C103.468 277.27 112.356 285.059 116.746 288.856C158.893 325.396 187.311 306.587 218.549 343.636C225.073 351.387 215.873 383.77 225.153 406.49C234.402 429.207 211.727 483.845 223.874 495.932C227.591 499.635 238.5 504.5 257 493.156C265.617 478.083 274.028 385.098 283.5 386C288.038 386.432 292.512 406.897 292.5 425C292.487 444.987 287.738 483.567 288 490.686C288.5 504.255 330 498.255 329.192 487.911C328.385 477.567 352.857 362.826 373.202 328.205C393.982 292.838 404.014 262.46 412.086 222.208C413.983 212.775 419.885 237.185 422.514 227.937C426.416 214.172 453.669 226.968 454.088 213.916C454.507 200.863 444.633 185.747 439.584 177.461C434.536 169.175 444.113 148.88 432.984 133.504C421.855 118.128 346.169 111.564 330.831 111.396" fill="#FFFBF6"/>
        <path d="M103.253 106.747C152.635 94.6575 147.923 109.169 182.138 120.601C216.353 132.034 225.891 133.817 224.832 152.377C211.557 213.503 188.627 221.239 171.716 228.844C165.799 231.512 159.344 232.762 152.91 233.764C146.475 234.765 143.554 242.646 137.457 240.302C126.892 236.248 121.743 224.643 115.778 215.001C108.167 202.663 97.7898 192.159 90.6037 179.575C83.1774 166.502 79.5047 151.708 75.9094 137.107C75.9094 137.107 90.7757 108.907 103.219 106.775L103.253 106.747Z" fill="#FFF5EB"/>
        <path d="M80.8296 124.612C99.6889 123.601 107.963 116.129 145.504 131.802C183.045 147.474 182.27 159.935 185.152 176.008C188.035 192.08 197.593 217.853 143.546 241.24C89.4995 264.627 80.8296 124.612 80.8296 124.612Z" fill="#FEEEE1"/>
        <path d="M243.096 36.6263C297.076 33.7541 323.133 12.2205 328.725 34.3562C330.782 41.5217 309.92 62.3578 305.856 68.6141C295.842 84.0014 291.022 80.8879 293.038 99.1691C294.052 108.435 330.007 117.637 319.943 155.227C317.173 135.51 292.648 130.433 293.096 138.622C293.544 146.811 301.195 151.844 294.954 181.19C288.74 210.57 249.771 246.753 229.531 228.567C209.323 210.383 227.526 184.019 212.988 155.182C210.711 150.685 208.163 146.072 204.073 143.174C197.453 138.476 193.033 141.861 185.233 137.503C176.869 132.818 172.75 117.393 178.177 94.1642C183.605 70.9352 189.085 39.4959 243.065 36.6237L243.096 36.6263Z" fill="#696969"/>
        <path d="M120.219 54.5126C127.389 51.3851 133.893 44.6109 135.325 46.1341C139.911 50.9463 118.961 80.0521 113.853 86.5037C107.145 95.0101 109.608 108.987 107.675 114.7C105.904 119.958 102.571 124.9 97.6866 127.497C92.6711 130.177 86.6945 130.154 81.0422 129.596C76.7481 129.18 80.3116 136.969 77.224 133.998C73.7908 130.686 90.4405 67.5259 120.219 54.5126Z" fill="#696969"/>
        <path d="M230.832 104.77C229.235 102.983 229.585 96.4526 229.805 92.2542C229.922 90.0774 230.198 87.8513 231.23 85.9059C232.959 82.6748 236.573 80.7542 240.186 80.364C243.799 79.9738 247.46 80.8993 250.871 82.2104C254.735 83.6837 258.523 85.7128 261.219 88.9016C264.397 92.661 266.104 96.5181 265.145 101.374C265.037 101.927 264.433 103.971 263.31 104.753C262.187 105.535 259.466 105.686 258.809 105.726C248.508 106.41 232.429 106.556 230.801 104.767L230.832 104.77Z" fill="#3D3D3D"/>
        <path d="M101.282 95.8715C105.527 93.4718 102.671 83.5234 102.386 82.0632C101.868 79.6469 100.468 78.1263 98.9466 77.6889C97.4257 77.2516 95.8206 77.838 94.2595 78.6467C92.5001 79.5953 90.7694 80.9523 89.4054 83.1515C87.7867 85.7982 86.8545 89.5634 86.9634 93.1642C86.9611 93.57 86.9873 94.0095 87.1499 94.3039C87.3384 94.663 87.6451 94.7194 87.9209 94.7733C92.272 95.6307 97.0731 98.2116 101.316 95.843L101.282 95.8715Z" fill="#3D3D3D"/>
        <path d="M66.9999 258.386C74.4998 258.06 72.8258 259.89 79.9049 262.032C86.4379 264 93.1582 265.202 99.9131 265.985C114.686 267.719 128.67 264.643 141.978 257.675C146.697 255.202 143.222 247.473 138.439 249.972C125.683 256.661 112.839 259.116 98.7659 257.211C92.452 256.367 86.2654 255.111 80.1681 253.147C73.3391 250.993 66.7637 249.543 59.5783 249.83C57.5 253.5 58.5001 252.5 65.4998 258L66.9999 258.386Z" fill="#F6DDEC"/>
        <path d="M93.3466 223.122C93.1287 230.319 82.2847 237.236 75.6998 240.068C66.8556 243.87 54.1216 246.884 46.2304 241.363C40.7839 237.542 39.7026 235.923 32.1118 220.307C24.49 204.688 25.4868 186.498 27.5496 173.144C29.6125 159.789 38.8233 142.056 47.6467 135.097C56.501 128.142 61.1415 123.963 87.5095 124.412C113.877 124.861 133.755 135.334 150.593 151.71C167.432 168.086 166.775 191.989 166.303 200.383C165.925 206.88 157.909 241.14 134.382 244.391C110.855 247.643 93.3156 223.119 93.3156 223.119L93.3466 223.122Z" fill="#696969"/>
        <path d="M40.5739 236.307C43.5407 242.642 48.7512 244.788 57.3619 244.964C65.9725 245.141 78.2968 242.187 94.553 226.626C104.991 238.291 126.064 248.612 135.903 245.204C167.409 236.174 143.4 213.087 128.571 198.781C113.742 184.476 121.455 172.46 111.559 163.682C106.594 159.307 98.772 156.728 90.6995 156.065C82.6271 155.401 74.4275 156.664 68.678 159.939C65.2804 161.878 62.0616 165.049 61.0057 168.804C59.9163 172.587 61.0949 176.432 61.3948 180.361C61.9556 187.934 60.2894 201.009 45.6516 216.579C40.466 222.087 37.6405 229.944 40.6074 236.279L40.5739 236.307Z" fill="#F6DDEC"/>
        <path d="M105.36 163.703C103.753 170.38 113.846 182.453 122.468 181.351C123.38 181.238 126.279 180.82 128.22 178.044C130.408 174.913 130.357 170.224 129.117 166.374C127.605 161.658 123.918 159.918 121.884 158.908C120.36 158.127 116.616 156.32 112.156 157.921C110.714 158.427 106.254 160.028 105.358 163.734L105.36 163.703Z" fill="#303031"/>
        <path d="M63.4416 169.472C61.3214 164.582 55.1814 160.485 49.9924 162.245C43.9043 164.337 42.8297 173.244 43.1379 177.83C43.5373 183.578 46.6805 191.177 51.1215 191.698C57.475 192.439 67.4729 178.768 63.4416 169.472Z" fill="#303031"/>
        <path d="M326.768 108.937C311.69 115.85 321.93 172.35 324.106 178.838C336.677 216.071 339.769 256.491 333.064 295.264C330.105 312.324 321.42 358.898 357.173 364.491C362.383 351.489 372.768 352.811 376.777 354.796C380.787 356.781 465.081 401.064 471.303 343.543C472.808 329.768 468.269 165.262 463.804 152.152C459.37 139.044 449.983 127.091 437.095 122.127C428.706 118.877 427.584 120.783 408.227 118.38C387.573 115.84 374.376 111.226 345.571 108.608C340.256 108.109 330.843 107.086 326.765 108.968L326.768 108.937Z" fill="#696969"/>
        <path d="M118.911 278.819C120.051 274.041 145.926 285.038 176.179 277.998C194.94 273.636 227.099 254.01 236.704 253.456C246.309 252.903 253.322 256.977 250.098 271.205C248.597 281.888 234.782 283.658 233.281 294.341C233.054 295.978 233.467 305.725 226.471 310.148C219.503 314.604 192.955 317.482 179.302 307.052C173.324 302.5 152.808 300.939 146.542 296.863C142.256 294.075 139.595 287.047 132.824 286.085C129.685 285.639 126.417 286.37 122.993 284.09C121.368 283.019 118.526 280.474 118.911 278.819Z" fill="#F7F3F2"/>
        <path d="M166.738 237.524C166.738 237.524 201.447 227.415 208.414 199.846" stroke="#F6DDEC" stroke-width="1.68316" stroke-miterlimit="10" stroke-linecap="round"/>
        <path d="M291.181 102.827C289.092 83.1654 305.632 73.6243 311.602 57.0613C317.571 40.4983 311.476 40.0286 320.639 33.0982C329.803 26.1679 329.042 33.9137 331.407 39.2305C333.773 44.5472 333.882 48.148 335.485 57.0565C337.088 65.9649 334.124 74.7478 330.048 93.278C325.972 111.808 324.24 126.439 314.538 130.452C304.835 134.464 293.271 122.489 291.181 102.827Z" fill="#F4E9DF"/>
        <path d="M310.885 24.8627C307.195 25.434 312.607 40.6524 315.461 38.888C318.315 37.1236 319.19 32.9165 324.293 32.2114C329.395 31.5063 329.874 36.668 335.687 58.7595C334.72 17.108 314.575 24.2914 310.885 24.8627Z" fill="#FFFBF6"/>
        <path d="M314.761 25.8069C314.761 25.8069 327.603 21.8649 329.058 24.2334C329.586 25.7759 326.826 23.3627 324.53 29.7019" fill="#FFFBF6"/>
        <path d="M288.958 161.708C288.958 161.708 294.16 157.887 296.589 159.024C299.018 160.161 299.22 155.804 299.248 155.463C300.144 157.067 300.56 160.725 298.612 164.344C296.664 167.963 297.63 167.574 296.192 175.982" fill="#696969"/>
        <path d="M292.198 171.156C292.198 171.156 296.671 170.149 299.069 168.254C301.617 165.277 301.342 162.569 301.597 162.121C301.851 161.674 303.875 165.088 301.568 170.427C299.261 175.766 296.842 174.505 293.198 186.262" fill="#696969"/>
        <path d="M233.778 89.77C233.355 89.2355 236.822 84.1795 241.981 83.5415C244.782 83.1783 247.154 84.2478 247.963 84.6267C249.943 85.539 251.96 87.1415 251.703 87.6201C251.405 88.2203 247.859 85.8987 243.104 86.1638C237.473 86.4818 234.172 90.2709 233.778 89.77Z" fill="#696969"/>
        <path d="M92.5039 81.0642C92.2972 80.5475 95.2976 78.1392 97.8315 78.7535C97.8315 78.7535 97.8934 78.7586 97.9243 78.7611C100.177 79.3836 101.46 81.5816 101.149 81.9621C100.907 82.2545 99.9316 81.2374 97.8488 80.8163C94.7581 80.1563 92.6872 81.4853 92.5039 81.0642Z" fill="#696969"/>
        <path d="M224.239 80.8033C223.563 79.5608 233.417 69.5326 245.121 70.3383C249.641 70.6474 253.009 72.4859 256.111 74.1463C264.847 78.8622 270.301 85.9945 269.717 86.6649C268.996 87.4802 261.118 76.8692 248.058 75.1399C234.781 73.3928 224.889 81.9811 224.241 80.7722L224.239 80.8033Z" fill="#575656"/>
        <path d="M99.4715 73.5782C102.49 73.9824 104.315 71.8524 106.197 74.7243C108.194 77.6995 107.599 81.5237 108.19 81.5409C108.684 81.5816 109.479 79.1169 109.25 76.5994C109.158 75.4363 108.81 71.7221 105.659 69.9014C101.082 67.9948 100.463 72.504 99.438 73.6067L99.4715 73.5782Z" fill="#575656"/>
    </g>
    <defs>
        <clipPath id="clip0_1837_5216">
            <rect width="456.561" height="505.873" fill="white" transform="translate(41.4365) rotate(4.69842)"/>
        </clipPath>
    </defs>
</svg>