<svg width="241" height="241" viewBox="0 0 241 241" fill="none" xmlns="http://www.w3.org/2000/svg">
    <rect x="5" y="5" width="231" height="231" rx="115.5" fill="#5366BD"/>
    <rect x="5" y="5" width="231" height="231" rx="115.5" stroke="#FFFCF9" stroke-width="10"/>
    <path d="M129.688 19.7812C134.77 20.1099 139.692 21.2615 144.406 23.2188C148.49 24.9141 152.701 26.2183 157.031 27.1562C162.236 28.2835 166.901 30.5864 170.969 34.0312C174.385 36.9278 177.992 39.5416 181.75 41.8438C185.901 44.3872 189.792 47.3112 193.406 50.625C197.107 54.0191 200.296 57.8854 202.938 62.1562C205.44 66.2036 207.745 70.3434 209.875 74.5625C212.02 78.8113 213.966 83.1664 215.656 87.625C217.388 92.1934 218.668 96.9018 219.5 101.719C220.324 106.488 220.687 110.927 220.562 115C220.506 116.857 220.48 118.175 220.5 119C220.505 119.2 220.524 119.354 220.531 119.469C220.599 119.703 220.672 119.873 220.688 119.969C220.756 120.401 220.754 120.802 220.75 121C220.741 121.467 220.689 122.035 220.625 122.625C220.492 123.852 220.256 125.652 219.906 127.938C219.228 132.366 218.739 136.846 218.438 141.375C218.088 146.622 216.607 151.555 214 156.125C211.698 160.157 209.44 164.162 207.25 168.125C205.028 172.145 202.735 176.165 200.344 180.156C197.797 184.406 194.716 188.266 191.156 191.719C187.736 195.035 184.132 198.141 180.344 201.031C176.474 203.984 172.356 206.556 168 208.719C163.764 210.821 159.437 212.71 155.031 214.406C150.627 216.102 146.138 217.607 141.562 218.906C136.808 220.256 131.946 221.049 127 221.281C122.22 221.505 117.432 221.49 112.656 221.219C107.762 220.941 102.939 220.176 98.1875 218.969C93.5577 217.792 88.9874 216.406 84.5 214.781C79.7616 213.065 75.3662 210.666 71.3438 207.625C67.7992 204.947 64.0669 202.547 60.1562 200.406C55.5305 197.874 51.6849 194.416 48.6562 190.094C46.0215 186.334 43.3255 182.687 40.5625 179.156C37.6012 175.372 35.0022 171.328 32.7812 167.062C30.6508 162.97 28.5989 158.814 26.625 154.594C24.5562 150.17 22.9508 145.553 21.8125 140.781C20.6573 135.936 20.1447 131.012 20.2812 126.031C20.4068 121.45 20.4532 116.866 20.4062 112.281C20.3558 107.358 20.8228 102.468 21.8125 97.625C22.8282 92.658 24.5747 87.9545 27.0625 83.5312C29.3602 79.4493 31.6665 75.4072 33.9688 71.4375C36.3707 67.2959 39.0889 63.377 42.125 59.6875C45.0326 56.1543 47.9931 52.6308 50.9688 49.0938C54.1205 45.3475 57.6388 41.9695 61.5312 38.9688C65.3925 35.9922 69.4988 33.3776 73.8438 31.1562C78.1696 28.9453 82.654 27.1293 87.2812 25.6875C91.8876 24.2523 96.563 23.1716 101.312 22.4688C105.853 21.7971 110.422 21.1045 115 20.4062C119.865 19.6645 124.763 19.4637 129.688 19.7812ZM116.219 28.3125C111.632 29.0119 107.049 29.7021 102.5 30.375C98.16 31.0169 93.8718 31.9991 89.6562 33.3125C85.4613 34.6196 81.3934 36.2747 77.4688 38.2812C73.5646 40.2776 69.875 42.6078 66.4062 45.2812C62.9657 47.9336 59.8434 50.9133 57.0625 54.2188C54.1052 57.7339 51.2016 61.2706 48.3125 64.7812C45.5579 68.1288 43.0878 71.678 40.9062 75.4375C38.6215 79.3771 36.3126 83.3845 34.0312 87.4375C31.9474 91.1402 30.475 95.0636 29.625 99.2188C28.7486 103.507 28.3623 107.836 28.4062 112.188C28.4542 116.874 28.4095 121.568 28.2812 126.25C28.1637 130.536 28.5992 134.768 29.5938 138.938C30.6064 143.182 32.0386 147.26 33.875 151.188C35.8033 155.311 37.7952 159.38 39.875 163.375C41.8677 167.202 44.1881 170.824 46.8438 174.219C49.6977 177.865 52.503 181.625 55.2188 185.5C57.5426 188.816 60.4541 191.433 64 193.375C68.2571 195.706 72.3264 198.331 76.1875 201.25C79.5682 203.805 83.2384 205.807 87.2188 207.25C91.4586 208.785 95.7811 210.107 100.156 211.219C104.405 212.298 108.717 212.969 113.094 213.219C117.594 213.474 122.12 213.492 126.625 213.281C130.959 213.078 135.211 212.401 139.375 211.219C143.72 209.985 147.979 208.546 152.156 206.938C156.331 205.33 160.422 203.524 164.438 201.531C168.336 199.596 172.035 197.3 175.5 194.656C179.035 191.958 182.401 189.065 185.594 185.969C188.655 182.999 191.28 179.684 193.469 176.031C195.813 172.118 198.074 168.188 200.25 164.25C202.458 160.255 204.712 156.218 207.031 152.156C209.041 148.635 210.2 144.884 210.469 140.844C210.785 136.087 211.286 131.378 212 126.719C212.346 124.463 212.574 122.827 212.688 121.781C212.714 121.535 212.707 121.333 212.719 121.188C212.669 120.963 212.608 120.767 212.594 120.656C212.535 120.205 212.512 119.683 212.5 119.188C212.475 118.137 212.505 116.642 212.562 114.75C212.667 111.321 212.347 107.422 211.594 103.062C210.848 98.754 209.705 94.5543 208.156 90.4688C206.566 86.2758 204.766 82.1819 202.75 78.1875C200.72 74.1662 198.514 70.2053 196.125 66.3438C193.869 62.6977 191.16 59.4289 188 56.5312C184.758 53.558 181.276 50.9312 177.562 48.6562C173.454 46.1393 169.534 43.3103 165.812 40.1562C162.742 37.5534 159.268 35.819 155.344 34.9688C150.543 33.9291 145.874 32.4742 141.344 30.5938C137.44 28.9731 133.389 28.022 129.188 27.75C124.837 27.4687 120.512 27.6589 116.219 28.3125ZM213.969 123.344C214.103 123.476 214.235 123.625 214.406 123.75C214.228 123.625 214.102 123.469 213.969 123.344ZM220 118.344C219.937 118.244 219.896 118.106 219.812 118C219.726 117.89 219.558 117.802 219.406 117.656C219.662 117.902 219.858 118.133 220 118.344ZM218.969 117.25C218.761 117.102 218.524 116.963 218.25 116.844C218.522 116.959 218.755 117.098 218.969 117.25Z" fill="white"/>
    <path d="M92.6944 95.0106C95.1291 91.7736 97.5812 87.588 98.832 84.1236C99.6016 81.9917 102.941 75.3845 98.832 75.0084C94.5053 74.6124 90.4397 88.3765 89.5514 84.1236C89.1069 81.9954 81.9518 71.5578 81.1065 77.9777C80.3614 83.6369 83.6515 89.7036 87.0255 94.7247C88.3853 96.7482 91.229 96.959 92.6944 95.0106Z" fill="white" stroke="white" stroke-width="9" stroke-linecap="round"/>
    <path d="M153.318 97.0489C150.507 93.4332 146.338 86.9308 145.257 82.2977C144.739 80.0745 143.139 73.1442 147.258 73.298C151.557 73.4586 154.498 88.0045 155.923 83.9447C156.647 81.882 165.074 72.6334 165.128 79.0357C165.185 85.7689 159.332 92.3385 154.795 97.1122C154.382 97.5462 153.686 97.5215 153.318 97.0489Z" fill="white" stroke="white" stroke-width="9" stroke-linecap="round"/>
    <path d="M51.5 134C51.5 134.058 61.4767 154.082 69.44 164.552C80.59 179.214 97.2642 188.073 115 189C133.655 189.975 152.875 183.302 166.025 168.827C172.498 161.702 185 145 189 135.5" stroke="white" stroke-width="9" stroke-linecap="round"/>
    <path d="M180 130C182.278 130.024 187.84 130.225 191.942 131.28C192.874 131.594 193.407 131.882 194.164 132.56C194.922 133.239 195.888 134.299 197.131 135.913" stroke="white" stroke-width="9" stroke-linecap="round"/>
    <path d="M43 139.045C43.1274 137.972 44.1452 134.304 46.162 131.845C47.1585 130.933 48.827 129.484 49.9988 128.587C51.1707 127.689 51.7951 127.387 53.6219 127" stroke="white" stroke-width="9" stroke-linecap="round"/>
</svg>
