<?xml version="1.0" encoding="UTF-8"?>
<svg id="Ebene_2" data-name="Ebene 2" xmlns="http://www.w3.org/2000/svg" xmlns:xlink="http://www.w3.org/1999/xlink" viewBox="0 0 430.14 430.14">
  <defs>
    <style>
      .cls-1, .cls-2 {
        fill: none;
      }

      .cls-3 {
        fill: #945516;
      }

      .cls-2 {
        stroke: #66338b;
        stroke-width: 7.98px;
      }

      .cls-4 {
        fill: #2c58a4;
      }

      .cls-5 {
        fill: #f28917;
      }

      .cls-6 {
        fill: #7bcce5;
      }

      .cls-7 {
        fill: #f4aec8;
      }

      .cls-8 {
        fill: #fff;
      }

      .cls-9 {
        fill: #fdd817;
      }

      .cls-10 {
        fill: #78b82a;
      }

      .cls-11 {
        fill: #e22016;
      }

      .cls-12 {
        fill: #efe524;
      }

      .cls-13 {
        clip-path: url(#clippath);
      }

      .cls-14 {
        fill: #6d2380;
      }
    </style>
    <clipPath id="clippath">
      <circle class="cls-1" cx="215.07" cy="215.07" r="215.07"/>
    </clipPath>
  </defs>
  <g id="Ebene_1-2" data-name="Ebene 1">
    <g class="cls-13">
      <g>
        <path class="cls-1" d="M215.07,0C156.71,0,103.8,23.25,65.05,60.98h300.03C326.34,23.25,273.42,0,215.07,0Z"/>
        <path class="cls-1" d="M161.69,382.15h-82.03c36.97,30,84.09,47.99,135.41,47.99s98.44-17.99,135.41-47.99h-188.78Z"/>
        <path class="cls-14" d="M161.69,382.15h188.78c18.82-15.27,35-33.65,47.78-54.36h-186.19l-50.37,54.36Z"/>
        <path class="cls-4" d="M99.93,61.98h266.18c-.34-.34-.68-.67-1.02-1H65.05c-.34.33-.68.66-1.02,1h35.9Z"/>
        <path class="cls-4" d="M29.34,222.07v-115.48C10.7,138.43,0,175.5,0,215.07s10.7,76.63,29.34,108.48v-101.49Z"/>
        <path class="cls-4" d="M212.06,327.79h186.19c9.97-16.16,17.85-33.74,23.29-52.36h-160.97l-48.51,52.36Z"/>
        <path class="cls-10" d="M260.57,275.43h160.97c4.96-17.01,7.88-34.89,8.47-53.36h-120l-49.44,53.36Z"/>
        <path class="cls-12" d="M310.01,222.07h120c.07-2.32.13-4.65.13-7,0-15.92-1.75-31.43-5.03-46.36h-164.54l49.44,53.36Z"/>
        <path class="cls-5" d="M260.57,168.7h164.54c-4.14-18.83-10.74-36.74-19.46-53.36h-194.52l49.44,53.36Z"/>
        <path class="cls-11" d="M211.13,115.34h194.52c-10.39-19.81-23.76-37.79-39.54-53.36h-204.42l49.44,53.36Z"/>
        <polygon points="260.57 275.43 310.01 222.07 260.57 168.7 211.13 115.34 161.69 61.98 130.6 61.98 278.92 222.07 130.6 382.15 161.69 382.15 212.06 327.79 260.57 275.43"/>
        <polygon class="cls-3" points="278.92 222.07 130.6 61.98 99.93 61.98 248.25 222.07 99.93 382.15 130.6 382.15 278.92 222.07"/>
        <path class="cls-6" d="M248.25,222.07L99.93,61.98h-30.67l148.32,160.08-143.77,155.17c1.92,1.67,3.87,3.31,5.85,4.91h20.27l148.32-160.08Z"/>
        <path class="cls-7" d="M217.58,222.07L69.26,61.98h-5.23c-4.45,4.39-8.7,8.97-12.76,13.73l135.21,146.35L57.62,361.55c5.12,5.5,10.52,10.74,16.19,15.69l143.77-155.17Z"/>
        <path class="cls-8" d="M186.48,222.07L51.27,75.71c-4.93,5.79-9.55,11.83-13.86,18.12l118.4,128.23-112.91,121.91c4.59,6.12,9.51,11.98,14.71,17.57l128.87-139.48Z"/>
        <path class="cls-9" d="M155.81,222.07L37.41,93.84c-2.84,4.15-5.53,8.4-8.07,12.75v216.96c4.14,7.07,8.67,13.9,13.56,20.43l112.91-121.91Z"/>
      </g>
      <circle class="cls-2" cx="75.98" cy="222.07" r="33.61"/>
      <g id="Ebene_2-2" data-name="Ebene 2">
        <g>
          <path class="cls-8" d="M219.97,259.13c-15.18-14.44-38.07-37.94-47.42-56.68-3.24-6.49-6.05-14.43-2.42-20.7,2.9-5,9.33-7.2,15.04-6.3,5.71.9,10.71,4.39,14.74,8.53,6.93,7.13,11.54,16.48,12.97,26.31,5.32-7.31,10.64-14.62,15.96-21.93,6.29-8.63,14.56-18.23,25.19-17.28,8.68.78,15.85,6.55,14.12,15.09-1.13,5.59-5.8,13.25-9.35,17.72-14.07,17.75-38.84,55.24-38.84,55.24Z"/>
          <path class="cls-8" d="M229.65,249.45c-16.43-15.67-33.11-31.78-43.78-51.07-1.24-2.24-2.03-3.66-2.66-5.42-.49-1.39-1.11-3.11-1.26-4.59.2,2.07.54-2.58.19-.21l-.2.49c-.87.97-.74.89.38-.24-.15,1.04-3.31,1.04-.18.55-1.95.3.08-.05,1.03,0,.93.03.89.03-.1,0,1.53.55,1.97.66,1.31.33,3.63,2.02,7.1,5.16,9.55,8.97,3.3,5.13,4.69,9.18,5.75,15.68.85,5.19,6.57,9.23,11.38,9.8,5.82.69,10.27-1.91,13.63-6.53,3.04-4.18,6.08-8.35,9.12-12.53,1.52-2.09,3.04-4.18,4.56-6.27.76-1.04,1.52-2.09,2.28-3.13.99-1.3,1.17-1.57.54-.79,1.24-1.59,2.55-3.14,3.93-4.61.41-.44,3.81-3.68,2.74-2.82.39-.31,4.58-3.18,2.92-1.93,1.63-.36,1.77-.48.41-.37l1.41-.06c1.75.1,1.91.09.48-.02.86.19,1.7.43,2.53.73-1.3-.55-1.26-.46.13.27-1.13-.96-1.13-.92,0,.13-.63-.57-1-1.28-1.12-2.13.4,1.53.44,1.49.12-.11.33-1.44.3-1.38-.07.19-.25.88-.54,1.75-.87,2.6.54-1.28-1.67,2.99-1.99,3.53-1,1.72-2.13,3.34-3.24,5-1.05,1.41-1.07,1.45-.06.12-.43.55-.87,1.11-1.29,1.66-1.28,1.65-2.56,3.31-3.82,4.98-12.39,16.37-23.91,33.45-35.23,50.57-4.08,6.17-1.22,15.14,4.91,18.72,6.69,3.91,14.63,1.27,18.72-4.91,10.35-15.65,20.92-31.2,32.05-46.3.83-1.12,1.65-2.24,2.49-3.35.61-.81,2.61-3.4.89-1.2,2.43-3.11,4.9-6.18,7.02-9.52,4.31-6.81,8.28-15.06,7.79-23.33-1.13-18.97-23.06-29.45-39.8-23.11-8.83,3.35-15.56,9.75-21.29,17.09-6.88,8.82-13.29,18.03-19.87,27.07l25.01,3.27c-2.74-16.76-13.68-34.51-29.49-41.75-20.02-9.16-44.39,3.71-41.49,27.4,2,16.32,13.55,30.8,23.64,43.1s20.48,22.83,31.56,33.4c5.35,5.1,14.04,5.31,19.35,0,5.14-5.14,5.37-14.23,0-19.35Z"/>
        </g>
      </g>
      <path class="cls-7" d="M215.07,67c39.55,0,76.73,15.4,104.7,43.37,27.97,27.97,43.37,65.15,43.37,104.7s-15.4,76.73-43.37,104.7c-27.97,27.97-65.15,43.37-104.7,43.37s-76.73-15.4-104.7-43.37c-27.97-27.97-43.37-65.15-43.37-104.7s15.4-76.73,43.37-104.7c27.97-27.97,65.15-43.37,104.7-43.37M215.07,0C96.29,0,0,96.29,0,215.07s96.29,215.07,215.07,215.07,215.07-96.29,215.07-215.07S333.85,0,215.07,0h0Z"/>
      <g id="text">
        <path class="cls-8" d="M175.39,23.86c5.31-1.06,4.84,15.22,8.24,14.54,3.64-.73-4.19-16.31,4.63-18.08,2.32-.46,4.09,1.24,4.75,4.55,1.36,6.79,4.53,31.35-1.49,32.55-5.72,1.14-7.19-6.48-9.75-5.96-2.21.44-.51,8.01-6.35,9.18-6.2,1.24-14.84-18.11-16.43-26.07-.79-3.95-.07-7.78,3.21-8.43,6.86-1.37,7.93,16.11,11.63,15.37.72-.14,1.38-2.39,1.07-3.96-.2-.99-.55-2.43-.86-4-.84-4.18-1.51-9.12,1.35-9.69Z"/>
        <path class="cls-8" d="M220.56,46.41c.17,5.92-3.98,9.54-10.31,9.72-9.18.26-10.32-7.76-10.58-16.76-.06-2.25-.07-4.56-.13-6.81-.26-9.06,3.46-12.9,11.79-13.14,3.1-.09,6.83.75,6.94,4.6.14,5.03-8.52,2.02-8.42,5.4.1,3.61,7.42.08,7.57,5.18.17,5.98-7.49,1.75-7.36,6.2.05,1.6,1.7,2.14,3.28,2.1,1.22-.03,2.36-.36,3.46-.4,2.49-.07,3.7,1.85,3.76,3.92Z"/>
        <path class="cls-8" d="M229.66,20.14c1.03.07,1.65.82,1.59,1.77-.06.95-.62,1.98-.68,2.92-.1,1.54,2.32,2.71,2.22,4.18-.13,1.89-2.67,3.5-4.85,3.36-2.79-.19-4.35-2.43-4.16-5.2.19-2.78,2.74-7.24,5.89-7.03Z"/>
        <path class="cls-8" d="M251.96,59.58c-6.11-1.07-4.23-14.33-6.56-14.73-.72-.13-1.15,1.3-1.41,2.76-.25,1.46-.39,3.3-.69,4.99-.66,3.79-2.87,5.81-6.94,5.1-3.59-.63-3.35-3.41-2.74-6.91.81-4.67,1.71-9.8,2.52-14.47.66-3.79,1.25-6.46,1.82-9.72.7-4.03,2.51-6.24,6.7-5.5,6.83,1.19,16.04,2.86,14.66,10.79-1,5.72-5.16,6.92-5.39,8.26-.56,3.21,4.19,10.29,3.19,16.01-.36,2.04-2.29,3.93-5.16,3.43ZM246.33,33.82c1.56.27,3.3-1.23,3.54-2.63.21-1.23-.99-2.1-2.19-2.31-.96-.17-1.28.98-1.49,2.15l-.18,1.05c-.17.99-.23,1.64.31,1.74Z"/>
        <path class="cls-8" d="M278.66,58.08c-1.79,5.65-6.9,7.69-12.93,5.78-8.75-2.78-7.18-10.73-4.46-19.31.68-2.15,1.44-4.33,2.12-6.47,2.74-8.64,7.52-11.04,15.46-8.52,2.96.94,6.2,2.96,5.04,6.63-1.52,4.8-8.71-.9-9.73,2.32-1.09,3.44,6.98,2.53,5.44,7.38-1.81,5.7-7.65-.81-9,3.42-.48,1.52.9,2.59,2.41,3.06,1.16.37,2.35.44,3.39.77,2.38.75,2.89,2.97,2.26,4.94Z"/>
        <path class="cls-8" d="M289.59,68.29c5.99-10.15,21.98-25.26,29.73-20.69,3.3,1.95,3.35,7,2.4,13.04-.97,5.82-2.94,12.5-6.22,18.54-1.96,3.31-5.61,5.91-8.59,4.14-4.97-2.94,2.27-8.5.64-12.07-.29-.58-1.26-1.57-2.41-2.25-.99-.59-2.14-.92-2.84-.58-3.47,1.94-6.61,8.2-11.43,5.36-2.41-1.42-2.51-3.41-1.27-5.5ZM312.41,61.81c.96-1.63,2.48-4.31,1.17-5.09-1.73-1.02-3.37,1.04-4.51,2.98-.75,1.27-.51,2.18.75,2.92,1.1.65,1.93.32,2.59-.81Z"/>
        <path class="cls-8" d="M330.83,88.85c1.89,1.53,1.87,3.88.04,6.13-3.1,3.82-6.18,2.31-9.25-.18-6.75-5.48-9.11-8.07-4.18-14.15,3.95-4.88,7.06-8.99,11.39-14.33,3.25-4,6.94-8.17,10.39-5.38,4.58,3.71.45,8.91-2.24,12.22l-.11.14c-2.95,3.63-4.7,6.18-8.47,10.83-1.16,1.43.73,3.34,2.44,4.72Z"/>
        <path class="cls-8" d="M346.07,103.93c1.68,1.75,1.37,4.08-.72,6.09-3.54,3.41-6.42,1.53-9.15-1.32-6.02-6.27-8.04-9.14-2.4-14.56,4.53-4.35,8.12-8.05,13.07-12.81,3.72-3.57,7.9-7.25,10.97-4.05,4.08,4.25-.66,8.89-3.73,11.85l-.13.12c-3.37,3.24-5.43,5.55-9.74,9.69-1.32,1.27.32,3.41,1.83,4.99Z"/>
        <path class="cls-8" d="M353.41,131.25c-3.76-6.32.17-10.01,6.08-13.53,2.7-1.61,5.72-3.13,8.67-4.88,6.87-4.09,12.96-7.65,16.69-1.38,5.94,9.98,4.44,20.64-6.35,27.07-9.16,5.46-19.33,2.39-25.09-7.27ZM374.87,127.8c1.78-1.06,3-4.34,2.01-6.01-.93-1.57-1.96-1.1-3.79,0l-5.09,3.03c-1.22.73-2.31,1.45-1.72,2.44.96,1.62,5.24,2.54,8.6.54Z"/>
        <path class="cls-8" d="M389.64,150.17c-1.63.7-3.43,1.47-5.23,2.24-6.43,2.75-16.54,6.81-18.31,2.68-2.68-6.26,6.52-10.66,14.58-14.11,2.78-1.19,5.49-2.22,7.56-3.1,4.96-2.12,9.59-2.58,11.02.77,2.61,6.09-3.8,9.03-9.63,11.53Z"/>
        <path class="cls-8" d="M380.31,157.42c2.21-.66,4.39-1.25,6.6-1.91,4.26-1.27,8.75-2.37,13.19-2.43,3.95-.04,5.96,2.15,7.36,6.81.72,2.39,1.05,4.95,1.06,7.04-.03,2.17-1.6,4.16-3.58,4.75-5.73,1.72-2.96-9.9-9.38-7.98-2.61.78.05,5.95-.64,8.19-.39,1.39-1.21,2.14-2.12,2.41-1.99.59-4.17-.91-4.92-3.41-.14-.47-.22-.95-.38-1.47-.28-.93-.67-1.83-1.55-1.88-1.41-.15-2.58.07-3.77.43-1.7.51-3.2,1.28-4.79,1.75-3.06.92-5.82-.03-6.59-2.6-1.55-5.18,4.3-8.14,9.52-9.71Z"/>
        <path class="cls-8" d="M386.65,179.23c2.28-.36,4.52-.64,6.8-1,4.39-.68,8.99-1.16,13.39-.61,3.91.5,5.61,2.94,6.36,7.75.38,2.46.37,5.05.09,7.12-.33,2.14-2.15,3.9-4.2,4.22-5.91.92-1.59-10.21-8.21-9.18-2.69.42-.76,5.9-1.75,8.03-.57,1.32-1.49,1.96-2.43,2.1-2.05.32-4-1.47-4.41-4.05-.08-.48-.09-.97-.18-1.51-.15-.96-.42-1.9-1.28-2.08-1.37-.34-2.56-.28-3.79-.09-1.76.27-3.35.83-4.99,1.09-3.16.49-5.76-.82-6.17-3.47-.83-5.35,5.37-7.48,10.75-8.32Z"/>
        <path class="cls-8" d="M387.92,221.9c-5.92.13-9.51-4.04-9.66-10.36-.21-9.18,7.82-10.27,16.82-10.48,2.25-.05,4.56-.04,6.81-.09,9.06-.21,12.88,3.54,13.07,11.87.07,3.1-.79,6.83-4.64,6.92-5.03.11-1.97-8.53-5.35-8.45-3.61.08-.13,7.42-5.22,7.54-5.98.14-1.71-7.5-6.15-7.4-1.6.04-2.15,1.69-2.12,3.27.03,1.22.35,2.36.38,3.46.06,2.49-1.87,3.69-3.94,3.74Z"/>
        <path class="cls-8" d="M376.51,242.18c.76-6.16,14.1-4.94,14.39-7.3.09-.72-1.36-1.09-2.83-1.27-1.47-.18-3.31-.22-5.02-.43-3.82-.47-5.95-2.57-5.44-6.67.45-3.62,3.24-3.52,6.77-3.09,4.7.58,9.88,1.21,14.58,1.79,3.82.47,6.51.92,9.8,1.33,4.06.5,6.35,2.19,5.83,6.42-.85,6.88-2.05,16.17-10.05,15.18-5.76-.71-7.17-4.8-8.52-4.97-3.23-.4-10.07,4.7-15.83,4-2.06-.25-4.04-2.09-3.68-4.99ZM401.95,235.26c-.19,1.57,1.39,3.23,2.8,3.41,1.23.15,2.04-1.1,2.19-2.3.12-.97-1.04-1.23-2.22-1.38-.35-.04-.71-.09-1.06-.13-1-.12-1.65-.14-1.72.4Z"/>
        <path class="cls-8" d="M379.15,268.68c-5.71-1.56-7.97-6.58-6.31-12.68,2.41-8.86,10.42-7.62,19.11-5.26,2.17.59,4.38,1.26,6.56,1.85,8.74,2.38,11.34,7.06,9.15,15.1-.81,2.99-2.7,6.32-6.42,5.31-4.86-1.32.54-8.74-2.72-9.63-3.49-.95-2.23,7.08-7.15,5.74-5.77-1.57.5-7.68-3.79-8.85-1.54-.42-2.55,1.01-2.96,2.53-.32,1.17-.34,2.37-.62,3.42-.66,2.41-2.84,3.01-4.84,2.46Z"/>
        <path class="cls-8" d="M382.01,291.69c-.41.88.7,1.46,1.5,1.83,1.29.6,3.06,1.28,4.84,2.1,3.66,1.69,7.3,4.11,5.57,7.86-.87,1.88-4.46,4.44-7.96,2.82-6.4-2.95-9.06-4.12-14.81-6.77-5.97-2.76-13.05-6.49-11.42-10.03,4.13-8.94,17.12-1.47,18.47-4.4.41-.88-1.18-1.82-3.55-2.91-.43-.2-.81-.37-1.24-.57-3.87-1.79-8.18-4.04-5.96-8.85,2.7-5.85,9.2-3.12,15.06-.41,4.03,1.86,7.37,3.4,11.18,5.16,4.68,2.16,9.07,5.79,6.98,10.32-1.76,3.81-17.37,1.02-18.67,3.84Z"/>
        <path class="cls-8" d="M369.93,313.71c5.58,3.91,5.1-7.27,11.64-2.68,5.77,4.05,1.76,10.59-2.33,16.42-.77,1.09-1.54,2.19-2.27,3.24-2.13,3.04-5.67,4.79-8.97,2.48-6.21-4.35,2.81-6.79-3.01-10.87-3.44-2.41-8.16-4.98-11.6-7.39-2.81-1.97-6.23-6.07-3.96-9.31,2.55-3.63,6.84-1.29,10.52,1.29,2.86,2,7.59,5.17,9.96,6.83Z"/>
        <path class="cls-8" d="M340.58,316.74c1.18-1.39,2.94-2.44,4.56-1.06,1.71,1.46,1.98,4.25.48,6.01-1.11,1.29-3.4,1.33-4.57.33-1.58-1.35-1.93-3.57-.47-5.28Z"/>
        <path class="cls-8" d="M192.83,408.95c-5.38-.58-.06-15.97-3.51-16.34-3.69-.4-.88,16.82-9.83,15.87-2.36-.25-3.53-2.4-3.17-5.76.74-6.89,5.06-31.27,11.16-30.62,5.8.62,4.92,8.33,7.52,8.61,2.24.24,2.88-7.5,8.81-6.86,6.29.67,8.74,21.73,7.88,29.8-.43,4-2.26,7.44-5.59,7.09-6.95-.74-2.75-17.75-6.5-18.15-.73-.08-2.03,1.87-2.2,3.46-.11,1-.2,2.48-.37,4.07-.45,4.24-1.29,9.16-4.19,8.85Z"/>
        <path class="cls-8" d="M156.48,373.89c1.62-5.7,6.67-7.9,12.75-6.17,8.83,2.51,7.51,10.51,5.05,19.17-.62,2.17-1.31,4.37-1.92,6.54-2.48,8.72-7.18,11.26-15.19,8.98-2.98-.85-6.29-2.77-5.24-6.48,1.38-4.84,8.73.63,9.66-2.61.99-3.48-7.05-2.31-5.66-7.21,1.64-5.75,7.67.58,8.89-3.69.44-1.54-.98-2.56-2.5-2.99-1.17-.33-2.36-.36-3.41-.66-2.4-.68-2.98-2.88-2.41-4.87Z"/>
        <path class="cls-8" d="M139.85,396.15c-.96-.38-1.32-1.28-.98-2.17.35-.88,1.19-1.7,1.54-2.58.56-1.43-1.39-3.28-.85-4.66.69-1.76,3.61-2.53,5.64-1.73,2.6,1.02,3.41,3.63,2.39,6.22-1.02,2.59-4.8,6.07-7.75,4.91Z"/>
        <path class="cls-8" d="M130.59,351.79c5.49,2.88-.34,14.93,1.76,16.03.65.34,1.5-.89,2.18-2.2.69-1.31,1.38-3.02,2.18-4.54,1.79-3.41,4.5-4.66,8.16-2.74,3.23,1.69,2.15,4.27.5,7.42-2.2,4.2-4.62,8.81-6.82,13.01-1.79,3.41-3.16,5.77-4.7,8.71-1.9,3.62-4.29,5.17-8.06,3.2-6.14-3.22-14.4-7.62-10.66-14.75,2.69-5.14,7.02-5.01,7.65-6.22,1.51-2.89-.85-11.08,1.84-16.22.96-1.84,3.38-3.04,5.96-1.69ZM128.09,378.03c-1.4-.73-3.52.16-4.18,1.42-.58,1.1.3,2.3,1.38,2.86.86.45,1.52-.54,2.07-1.59.17-.31.33-.63.5-.94.47-.89.72-1.5.23-1.75Z"/>
        <path class="cls-8" d="M104.73,345.04c3.43-4.82,8.93-5.2,14.08-1.54,7.48,5.32,3.55,12.42-1.67,19.75-1.31,1.83-2.69,3.68-4,5.51-5.25,7.38-10.54,8.2-17.33,3.37-2.53-1.8-5-4.72-2.77-7.86,2.92-4.1,8.01,3.53,9.97.77,2.1-2.94-5.87-4.54-2.92-8.69,3.47-4.87,7.03,3.12,9.61-.5.93-1.3-.07-2.74-1.35-3.65-.99-.71-2.1-1.13-2.99-1.77-2.03-1.45-1.84-3.71-.64-5.4Z"/>
        <path class="cls-8" d="M97.47,332c-8.83,7.8-28.7,17.25-34.66,10.5-2.54-2.87-1.03-7.69,1.75-13.15,2.72-5.24,6.65-10.99,11.64-15.72,2.89-2.55,7.16-3.89,9.45-1.29,3.82,4.33-4.78,7.39-4.33,11.29.1.65.71,1.88,1.6,2.89.76.87,1.75,1.54,2.52,1.42,3.9-.77,8.82-5.76,12.52-1.57,1.85,2.1,1.33,4.01-.49,5.62ZM73.77,331.11c-1.42,1.25-3.69,3.34-2.68,4.48,1.33,1.5,3.52.05,5.21-1.44,1.11-.98,1.15-1.91.19-3.01-.85-.96-1.74-.9-2.72-.03Z"/>
        <path class="cls-8" d="M64.64,299.67c-1.32-2.04-.56-4.27,1.88-5.84,4.13-2.66,6.59-.27,8.73,3.05,4.71,7.31,6.14,10.51-.43,14.75-5.28,3.4-9.51,6.34-15.29,10.06-4.33,2.79-9.14,5.6-11.55,1.87-3.19-4.96,2.35-8.6,5.93-10.91l.15-.1c3.93-2.53,6.39-4.41,11.42-7.65,1.54-.99.34-3.4-.84-5.24Z"/>
        <path class="cls-8" d="M54.91,280.55c-1.05-2.2-.02-4.3,2.61-5.55,4.44-2.11,6.57.58,8.27,4.14,3.74,7.85,4.75,11.21-2.31,14.57-5.67,2.7-10.24,5.08-16.45,8.03-4.65,2.21-9.78,4.39-11.69.38-2.54-5.33,3.43-8.23,7.28-10.06l.16-.08c4.23-2.01,6.9-3.55,12.3-6.12,1.66-.79.78-3.33-.17-5.31Z"/>
        <path class="cls-8" d="M54.89,245.9c1.75,8.27-16.45,19.21-25.72,21.18-2.67.56-6.3-.03-7.05-3.54-1.3-6.13,15.18-10.37,14.7-12.63-.53-2.5-18.44,1.55-19.86-5.17-.48-2.26.61-4.85,3.5-5.47,9.27-1.97,33.22-.08,34.43,5.63Z"/>
        <path class="cls-8" d="M48.43,235.97c-11.78.5-33.16-4.67-33.54-13.67-.16-3.83,4.05-6.62,9.63-9.11,5.41-2.36,12.09-4.35,18.94-4.88,3.85-.16,8.01,1.48,8.15,4.95.24,5.77-8.36,2.73-10.47,6.04-.33.56-.63,1.91-.57,3.25.05,1.15.39,2.3,1.06,2.69,3.52,1.86,10.48,1.08,10.72,6.66.12,2.79-1.49,3.96-3.92,4.06ZM30.58,220.35c-1.89.08-4.97.27-4.9,1.79.09,2,2.7,2.26,4.95,2.16,1.48-.06,2.1-.76,2.04-2.22-.05-1.28-.79-1.79-2.09-1.74Z"/>
        <path class="cls-8" d="M43.33,190.2c.27-2.42,2.26-3.66,5.14-3.34,4.89.55,5.28,3.95,4.84,7.88-.97,8.64-1.88,12.03-9.65,11.16-6.24-.7-11.38-1.09-18.21-1.85-5.12-.57-10.63-1.43-10.13-5.84.66-5.86,7.26-5.19,11.49-4.71l.18.02c4.65.52,7.74.62,13.68,1.28,1.83.2,2.42-2.42,2.66-4.6Z"/>
        <path class="cls-8" d="M34.1,169.92c1.73.39,3.64.82,5.55,1.25,6.82,1.54,17.4,4.17,16.41,8.56-1.5,6.64-11.53,4.82-20.08,2.89-2.95-.66-5.75-1.42-7.95-1.91-5.26-1.18-9.28-3.52-8.48-7.08,1.46-6.46,8.37-5.09,14.56-3.7Z"/>
        <path class="cls-8" d="M60.2,165.73c-2.57,6.89-7.91,6.14-14.35,3.74-2.94-1.1-6.02-2.5-9.24-3.7-7.49-2.79-14.08-5.31-11.53-12.14,4.05-10.88,13.31-16.39,25.07-12.01,9.99,3.72,13.97,13.57,10.05,24.11ZM44.07,151.16c-1.94-.72-5.26.38-5.94,2.2-.64,1.71.38,2.22,2.37,2.96l5.55,2.07c1.33.5,2.57.89,2.98-.19.66-1.77-1.3-5.67-4.96-7.04Z"/>
        <path class="cls-8" d="M69.17,143.67c-.84,1.62-2.31,3.05-4.2,2.07-2-1.03-2.9-3.69-1.84-5.74.78-1.51,3-2.07,4.37-1.37,1.84.95,2.7,3.04,1.67,5.03Z"/>
      </g>
    </g>
  </g>
</svg>