<svg width="117" height="98" viewBox="0 0 117 98" fill="none" xmlns="http://www.w3.org/2000/svg">
    <path d="M9.62378 73.9287C9.62384 77.7065 11.0904 81.3694 13.7644 84.1016C16.4454 86.8408 20.1261 88.4189 24.0076 88.4189C26.9533 88.4189 29.7821 87.5084 32.1472 85.873C34.5125 87.5086 37.3419 88.4189 40.2878 88.4189C43.2336 88.4189 46.0624 87.5084 48.4275 85.873C50.7927 87.5086 53.6222 88.4189 56.5681 88.4189L59.824 88.4189C62.7697 88.4189 65.5985 87.5084 67.9636 85.873C70.3289 87.5087 73.1583 88.4189 76.1042 88.4189C79.05 88.4189 81.8788 87.5084 84.2439 85.873C86.6091 87.5086 89.4386 88.4189 92.3845 88.4189C96.2659 88.4189 99.9457 86.8407 102.627 84.1016C105.301 81.3693 106.768 77.7066 106.768 73.9287L106.768 58.7656L106.76 58.5732C104.113 -6.59184 12.2516 -6.47267 9.63062 58.5762L9.62378 58.7676L9.62378 73.9287Z" fill="#EEFAFF" stroke="#EEFAFF" stroke-width="19"/>
    <path d="M51.6838 73.9281L51.6838 58.958C51.6838 57.1935 52.3699 55.5012 53.5912 54.2534C54.8124 53.0057 56.4688 52.3047 58.1959 52.3047C59.923 52.3047 61.5794 53.0057 62.8007 54.2534C64.0219 55.5012 64.708 57.1935 64.708 58.958L64.708 73.9281C64.708 75.2515 64.1934 76.5207 63.2775 77.4566C62.3616 78.3924 61.1193 78.9181 59.8239 78.9181L56.5679 78.9181C55.2726 78.9181 54.0303 78.3924 53.1144 77.4566C52.1984 76.5207 51.6838 75.2515 51.6838 73.9281Z" fill="#7BCCE5"/>
    <path d="M35.4035 73.9282L35.4035 58.9582C36.478 28.1299 79.9233 28.1532 80.988 58.9582L80.988 73.9282C80.988 75.2517 80.4735 76.5209 79.5575 77.4567C78.6416 78.3925 77.3993 78.9183 76.104 78.9183C74.8086 78.9183 73.5664 78.3925 72.6504 77.4567C71.7345 76.5209 71.2199 75.2517 71.2199 73.9282L71.2199 58.9582C71.2199 55.429 69.8477 52.0444 67.4052 49.5489C64.9627 47.0535 61.65 45.6515 58.1958 45.6515C54.7415 45.6515 51.4288 47.0535 48.9863 49.5489C46.5438 52.0444 45.1716 55.429 45.1716 58.9582L45.1716 73.9282C45.1716 75.2517 44.657 76.5209 43.7411 77.4567C42.8251 78.3925 41.5829 78.9183 40.2875 78.9183C38.9922 78.9183 37.7499 78.3925 36.834 77.4567C35.918 76.5209 35.4035 75.2517 35.4035 73.9282Z" fill="#F4AEC8"/>
    <path d="M24.0074 78.9185C25.3027 78.9185 26.545 78.3927 27.461 77.4569C28.3769 76.5211 28.8915 75.2519 28.8915 73.9285L28.8915 58.9584C30.4348 19.2579 85.9699 19.2878 87.5002 58.9584L87.5002 73.9285C87.5002 75.2519 88.0148 76.5211 88.9307 77.4569C89.8466 78.3927 91.0889 78.9185 92.3843 78.9185C93.6796 78.9185 94.9219 78.3927 95.8378 77.4569C96.7537 76.5211 97.2683 75.2519 97.2683 73.9285L97.2683 58.9584C95.1161 5.98442 21.2561 6.02767 19.1233 58.9584L19.1233 73.9285C19.1233 75.2519 19.6379 76.5211 20.5539 77.4569C21.4698 78.3927 22.7121 78.9185 24.0074 78.9185Z" fill="#7BCCE5"/>
</svg>
