<svg width="246" height="34" viewBox="0 0 246 34" fill="none" xmlns="http://www.w3.org/2000/svg">
    <path d="M7 27.2381C7.79306 26.2513 10.412 23.0305 17.1405 18.3052C27.8609 10.7764 36.4443 12.1724 41.2813 12.6655C48.8997 13.442 61.7466 23.3917 69.5476 25.3365C78.3172 27.5227 88.4555 27.0716 96.148 26.5627C102.611 26.1352 111.838 22.3508 125.532 17.6234C132.752 15.1307 141.01 13.9874 146.997 13.1781C156.526 11.8901 165.926 14.6606 176.715 19.2119C186.292 23.2521 193.275 25.6816 199.373 26.4926C213.956 28.4322 220.709 23.541 228.019 18.2444C230.469 16.0649 234.075 12.6591 236.205 10.5498C238.335 8.44058 238.88 7.73104 239.441 7" stroke="#5366BD" stroke-width="13" stroke-linecap="round"/>
</svg>
