<?xml version="1.0" encoding="UTF-8"?>
<svg id="Ebene_2" data-name="Ebene 2" xmlns="http://www.w3.org/2000/svg" xmlns:xlink="http://www.w3.org/1999/xlink" viewBox="0 0 496.46 541.57">
  <defs>
    <style>
      .cls-1, .cls-2 {
        fill: none;
      }

      .cls-3 {
        fill: #303031;
      }

      .cls-4 {
        fill: #575656;
      }

      .cls-5 {
        fill: #fff5eb;
      }

      .cls-6 {
        fill: #f6ddec;
      }

      .cls-7 {
        fill: #fffbf6;
      }

      .cls-8 {
        fill: #696969;
      }

      .cls-9 {
        fill: #3d3d3d;
      }

      .cls-10 {
        fill: #feeee1;
      }

      .cls-11 {
        fill: #f4e9df;
      }

      .cls-2 {
        stroke: #f6ddec;
        stroke-linecap: round;
        stroke-miterlimit: 10;
        stroke-width: 1.68px;
      }

      .cls-12 {
        fill: #f7f3f2;
      }

      .cls-13 {
        clip-path: url(#clippath);
      }
    </style>
    <clipPath id="clippath">
      <rect class="cls-1" x="-4.7" y="42.5" width="505.87" height="456.56" transform="translate(-41.98 496) rotate(-85.3)"/>
    </clipPath>
  </defs>
  <g id="Ebene_1-2" data-name="Ebene 1">
    <g class="cls-13">
      <g>
        <path class="cls-7" d="M315.9,29.77c-3.83,2.25-6.3,6.2-8.4,10.12-14.3,26.56-18.74,58.3-12.39,87.81M317.62,145.95c1.96-5.31,12.5-42.58,11.67-70.41-.34-11.43-2.05-30.34-3.82-32.77-.95-1.33.11-12.67-9.84-14.4-7.58-1.31-13.9,1.61-15.67,2.4-26.43,11.32-75.82-18.63-125.75-2.9-8.63,2.73-25.05,9.25-42.6,19.77-5.24,3.16-11.24,6.76-16.34,10.96-19.74,16.21-25.61,40.69-29.07,55.89-13.18,58.01-44.64,85.07-46.81,106.53-1.98,19.55,24.4,35.77,31.07,40.19,4.19,2.78,7.53,2.34,19.34,8.68,13.66,7.37,22.54,15.16,26.93,18.95,42.15,36.54,70.57,17.73,101.8,54.78,6.52,7.75-2.68,40.13,6.6,62.85,9.25,22.72-13.43,77.36-1.28,89.44,3.72,3.7,14.63,8.57,33.13-2.78,8.62-15.07,17.03-108.06,26.5-107.16,4.54.43,9.01,20.9,9,39-.01,19.99-4.76,58.57-4.5,65.69.5,13.57,42,7.57,41.19-2.77-.81-10.34,23.67-125.09,44.01-159.71,20.78-35.37,30.81-65.74,38.88-106,1.9-9.43,7.8,14.98,10.43,5.73,3.9-13.76,31.15-.97,31.57-14.02.42-13.05-9.46-28.17-14.5-36.46-5.05-8.29,4.53-28.58-6.6-43.96-11.13-15.38-86.82-21.94-102.15-22.11"/>
        <path class="cls-5" d="M103.25,106.75c49.38-12.09,44.67,2.42,78.89,13.85,34.21,11.43,43.75,13.22,42.69,31.78-13.27,61.13-36.21,68.86-53.12,76.47-5.92,2.67-12.37,3.92-18.81,4.92-6.43,1-9.36,8.88-15.45,6.54-10.57-4.05-15.71-15.66-21.68-25.3-7.61-12.34-17.99-22.84-25.17-35.43-7.43-13.07-11.1-27.87-14.69-42.47,0,0,14.87-28.2,27.31-30.33l.03-.03Z"/>
        <path class="cls-10" d="M80.83,124.61c18.86-1.01,27.13-8.48,64.67,7.19,37.54,15.67,36.77,28.13,39.65,44.21,2.88,16.07,12.44,41.85-41.61,65.23-54.05,23.39-62.72-116.63-62.72-116.63Z"/>
        <path class="cls-8" d="M243.1,36.63c53.98-2.87,80.04-24.41,85.63-2.27,2.06,7.17-18.8,28-22.87,34.26-10.01,15.39-14.83,12.27-12.82,30.56,1.01,9.27,36.97,18.47,26.9,56.06-2.77-19.72-27.29-24.79-26.85-16.61.45,8.19,8.1,13.22,1.86,42.57-6.21,29.38-45.18,65.56-65.42,47.38-20.21-18.18-2.01-44.55-16.54-73.38-2.28-4.5-4.83-9.11-8.92-12.01-6.62-4.7-11.04-1.31-18.84-5.67-8.36-4.69-12.48-20.11-7.06-43.34,5.43-23.23,10.91-54.67,64.89-57.54h.03Z"/>
        <path class="cls-8" d="M120.22,54.51c7.17-3.13,13.67-9.9,15.11-8.38,4.59,4.81-16.36,33.92-21.47,40.37-6.71,8.51-4.24,22.48-6.18,28.2-1.77,5.26-5.1,10.2-9.99,12.8-5.02,2.68-10.99,2.66-16.64,2.1-4.29-.42-.73,7.37-3.82,4.4-3.43-3.31,13.22-66.47,43-79.49Z"/>
        <path id="eye_r" class="cls-9" d="M230.83,104.77c-1.6-1.79-1.25-8.32-1.03-12.52.12-2.18.39-4.4,1.43-6.35,1.73-3.23,5.34-5.15,8.96-5.54,3.61-.39,7.27.54,10.68,1.85,3.86,1.47,7.65,3.5,10.35,6.69,3.18,3.76,4.89,7.62,3.93,12.47-.11.55-.71,2.6-1.83,3.38-1.12.78-3.84.93-4.5.97-10.3.68-26.38.83-28.01-.96h.03Z"/>
        <path id="eye_l" class="cls-9" d="M101.28,95.87c4.25-2.4,1.39-12.35,1.1-13.81-.52-2.42-1.92-3.94-3.44-4.37-1.52-.44-3.13.15-4.69.96-1.76.95-3.49,2.31-4.85,4.5-1.62,2.65-2.55,6.41-2.44,10.01,0,.41.02.85.19,1.14.19.36.5.42.77.47,4.35.86,9.15,3.44,13.4,1.07l-.03.03Z"/>
        <path class="cls-6" d="M67,258.39c7.5-.33,5.83,1.5,12.9,3.65,6.53,1.97,13.25,3.17,20.01,3.95,14.77,1.73,28.76-1.34,42.06-8.31,4.72-2.47,1.24-10.2-3.54-7.7-12.76,6.69-25.6,9.14-39.67,7.24-6.31-.84-12.5-2.1-18.6-4.06-6.83-2.15-13.4-3.6-20.59-3.32-2.08,3.67-1.08,2.67,5.92,8.17l1.5.39Z"/>
        <path class="cls-8" d="M93.35,223.12c-.22,7.2-11.06,14.11-17.65,16.95-8.84,3.8-21.58,6.82-29.47,1.3-5.45-3.82-6.53-5.44-14.12-21.06-7.62-15.62-6.63-33.81-4.56-47.16,2.06-13.35,11.27-31.09,20.1-38.05,8.85-6.96,13.49-11.13,39.86-10.68,26.37.45,46.25,10.92,63.08,27.3,16.84,16.38,16.18,40.28,15.71,48.67-.38,6.5-8.39,40.76-31.92,44.01-23.53,3.25-41.07-21.27-41.07-21.27h.03Z"/>
        <path class="cls-6" d="M40.57,236.31c2.97,6.33,8.18,8.48,16.79,8.66,8.61.18,20.93-2.78,37.19-18.34,10.44,11.66,31.51,21.99,41.35,18.58,31.51-9.03,7.5-32.12-7.33-46.42-14.83-14.31-7.12-26.32-17.01-35.1-4.96-4.38-12.79-6.95-20.86-7.62-8.07-.66-16.27.6-22.02,3.87-3.4,1.94-6.62,5.11-7.67,8.87-1.09,3.78.09,7.63.39,11.56.56,7.57-1.11,20.65-15.74,36.22-5.19,5.51-8.01,13.37-5.04,19.7l-.03.03Z"/>
        <path class="cls-3" d="M105.36,163.7c-1.61,6.68,8.49,18.75,17.11,17.65.91-.11,3.81-.53,5.75-3.31,2.19-3.13,2.14-7.82.9-11.67-1.51-4.72-5.2-6.46-7.23-7.47-1.52-.78-5.27-2.59-9.73-.99-1.44.51-5.9,2.11-6.8,5.81v-.03Z"/>
        <path class="cls-3" d="M63.44,169.47c-2.12-4.89-8.26-8.99-13.45-7.23-6.09,2.09-7.16,11-6.85,15.59.4,5.75,3.54,13.35,7.98,13.87,6.35.74,16.35-12.93,12.32-22.23Z"/>
        <path class="cls-8" d="M326.77,108.94c-15.08,6.91-4.84,63.41-2.66,69.9,12.57,37.23,15.66,77.65,8.96,116.43-2.96,17.06-11.64,63.63,24.11,69.23,5.21-13,15.6-11.68,19.6-9.7,4.01,1.99,88.3,46.27,94.53-11.25,1.51-13.77-3.03-178.28-7.5-191.39-4.43-13.11-13.82-25.06-26.71-30.02-8.39-3.25-9.51-1.34-28.87-3.75-20.65-2.54-33.85-7.15-62.66-9.77-5.32-.5-14.73-1.52-18.81.36v-.03Z"/>
        <path class="cls-12" d="M118.91,278.82c1.14-4.78,27.01,6.22,57.27-.82,18.76-4.36,50.92-23.99,60.52-24.54,9.61-.55,16.62,3.52,13.39,17.75-1.5,10.68-15.32,12.45-16.82,23.14-.23,1.64.19,11.38-6.81,15.81-6.97,4.46-33.52,7.33-47.17-3.1-5.98-4.55-26.49-6.11-32.76-10.19-4.29-2.79-6.95-9.82-13.72-10.78-3.14-.45-6.41.29-9.83-1.99-1.62-1.07-4.47-3.62-4.08-5.27Z"/>
        <path class="cls-2" d="M166.74,237.52s34.71-10.11,41.68-37.68"/>
        <path class="cls-11" d="M291.18,102.83c-2.09-19.66,14.45-29.2,20.42-45.77,5.97-16.56-.13-17.03,9.04-23.96,9.16-6.93,8.4.82,10.77,6.13,2.37,5.32,2.47,8.92,4.08,17.83,1.6,8.91-1.36,17.69-5.44,36.22-4.08,18.53-5.81,33.16-15.51,37.17-9.7,4.01-21.27-7.96-23.36-27.62Z"/>
        <path class="cls-7" d="M310.89,24.86c-3.69.57,1.72,15.79,4.58,14.03s3.73-5.97,8.83-6.68c5.1-.71,5.58,4.46,11.39,26.55-.97-41.65-21.11-34.47-24.8-33.9Z"/>
        <path class="cls-7" d="M314.76,25.81s12.84-3.94,14.3-1.57c.53,1.54-2.23-.87-4.53,5.47"/>
        <path class="cls-8" d="M288.96,161.71s5.2-3.82,7.63-2.68c2.43,1.14,2.63-3.22,2.66-3.56.9,1.6,1.31,5.26-.64,8.88-1.95,3.62-.98,3.23-2.42,11.64"/>
        <path class="cls-8" d="M292.2,171.16s4.47-1.01,6.87-2.9c2.55-2.98,2.27-5.68,2.53-6.13.25-.45,2.28,2.97-.03,8.31s-4.73,4.08-8.37,15.83"/>
        <path class="cls-8" d="M233.78,89.77c-.42-.53,3.04-5.59,8.2-6.23,2.8-.36,5.17.71,5.98,1.09,1.98.91,4,2.51,3.74,2.99-.3.6-3.84-1.72-8.6-1.46-5.63.32-8.93,4.11-9.33,3.61Z"/>
        <path class="cls-8" d="M92.5,81.06c-.21-.52,2.79-2.93,5.33-2.31,0,0,.06,0,.09,0,2.25.62,3.54,2.82,3.22,3.2-.24.29-1.22-.72-3.3-1.15-3.09-.66-5.16.67-5.34.25Z"/>
        <path class="cls-4" d="M224.24,80.8c-.68-1.24,9.18-11.27,20.88-10.46,4.52.31,7.89,2.15,10.99,3.81,8.74,4.72,14.19,11.85,13.61,12.52-.72.82-8.6-9.8-21.66-11.53-13.28-1.75-23.17,6.84-23.82,5.63v.03Z"/>
        <path class="cls-4" d="M99.47,73.58c3.02.4,4.84-1.73,6.73,1.15,2,2.98,1.4,6.8,1.99,6.82.49.04,1.29-2.42,1.06-4.94-.09-1.16-.44-4.88-3.59-6.7-4.58-1.91-5.2,2.6-6.22,3.71l.03-.03Z"/>
      </g>
    </g>
  </g>
</svg>