<?xml version="1.0" encoding="UTF-8"?> <svg xmlns="http://www.w3.org/2000/svg" width="111" height="114" viewBox="0 0 111 114" fill="none"><g clip-path="url(#clip0_194_197)"><path d="M60.9843 28.2852L71.033 12.2759C78.0745 3.07213 90.1803 -1.04672 99.6174 7.35329C108.992 15.6973 104.665 28.0247 97.446 36.0525C94.0295 39.8517 89.1229 41.4641 87.4417 45.7002C105.642 46.2861 117.328 58.2503 107.337 76.2291C98.1806 92.7058 83.1731 85.854 71.9327 75.9486C71.4146 86.979 71.1591 104.273 60.9092 111.169C54.2102 115.675 48.2035 113.791 43.1692 108.033C33.9472 97.4857 39.447 84.2256 42.2754 72.302C31.8288 80.4341 6.6142 88.9116 1.00214 71.5663C-5.83176 50.4447 24.1233 46.9861 38.1595 44.7794C35.7718 36.4052 27.3081 28.5786 26.3975 19.4841C25.7226 12.7431 27.8921 1.61324 35.8655 0.770505C50.2762 -0.752605 58.2965 16.4229 60.9843 28.2852Z" fill="#EC95C3"></path></g><defs><clipPath id="clip0_194_197"><rect width="111" height="113" fill="white" transform="translate(0.00292969 0.675766)"></rect></clipPath></defs></svg> 