<?xml version="1.0" encoding="UTF-8"?>
<svg id="Ebene_2" data-name="Ebene 2" xmlns="http://www.w3.org/2000/svg" viewBox="0 0 236.72 119.94">
  <defs>
    <style>
      .cls-1 {
        fill: #ae80c9;
      }

      .cls-2 {
        fill: #fca729;
      }

      .cls-2, .cls-3, .cls-4, .cls-5, .cls-6, .cls-7 {
        stroke: #1d1d1b;
        stroke-miterlimit: 10;
        stroke-width: 2px;
      }

      .cls-3 {
        fill: #fb783e;
      }

      .cls-4 {
        fill: #f64c2f;
      }

      .cls-8 {
        fill: #1d1d1b;
      }

      .cls-6 {
        fill: #848a4b;
      }

      .cls-7 {
        fill: #808acb;
      }
    </style>
  </defs>
  <g id="Ebene_9" data-name="Ebene 9">
    <g>
      <path class="cls-5" d="M3.3,75.74c0-9.8-.4-19.3-.4-27.8,0-13.8,5.4-17.9,19.2-17.9,11.3,0,21.7,4.4,21.7,15.3,0,22.6-21,11.6-21,21.9,0,4.5.5,13.5.5,17.1,0,6.4-1.1,8.3-7.8,8.3-8.8,0-12.2-4.4-12.2-16.9ZM25.1,42.93c-2.3,0-4.2.9-4.2,3.9,0,1.9,1.2,2.5,3.1,2.5,2.3,0,4.7-1.2,4.7-3.4,0-1.8-1.6-3-3.6-3Z"/>
      <path class="cls-5" d="M85.2,45.63c0,10.4-5.7,10.9-5.7,15.5,0,6.3,7.7,15.8,7.7,26.5,0,2.4-3,5.1-7.5,5.1-11.9,0-9.9-27.6-14.6-27.6-5.4,0,1.4,27.5-9.3,27.5-7.9,0-8.6-9-8.6-15.7v-9.7c0-5.1.3-10.3.3-15.4,0-19.2,2.9-22.2,22-22.2,9.4,0,15.7,4.8,15.7,16ZM66.3,43.43c-1.4,0-2,.2-2,1.8,0,1,.1,4.1.2,5,.1.7.2.9.5.9,1.9,0,5.5-3,5.5-5.3,0-1.9-2.8-2.4-4.2-2.4Z"/>
      <path class="cls-5" d="M89.3,71.24c0-2.9-.1-6.4-.1-10.1,0-13.7.9-30.8,9.5-30.8s9.4,12.6,9.4,26.9v17c0,8.5-.7,18.5-8.1,18.5-9.5,0-10.7-11.2-10.7-21.5Z"/>
      <path class="cls-5" d="M125.2,92.74c-9.3,0-12.7-3.7-12.7-12.4,0-9.6-.2-19.6-.2-29.2,0-9,.3-20,10.8-20,16.2,0,31.4,11,31.4,31,0,18.3-9.4,30.6-29.3,30.6ZM128,52.54c-1,0-1.1.6-1.1,2.5,0,2.6.2,9.6.3,12.2.1,2.3-.1,3.4,1.2,3.4,4.1,0,8.8-4.1,8.8-8.8,0-5.1-5.4-9.3-9.2-9.3Z"/>
      <path class="cls-5" d="M188.8,39.43c0,8.3-15,2.5-15,9.8,0,4.8,13,3.4,13,11.5,0,7.1-11.6,5.9-11.6,8.9,0,8.7,16.3-.3,16.3,11.7,0,9.2-9.1,11.4-17.8,11.4-15.2,0-15.8-15.2-15.8-30.9v-1.6c0-14.7.3-29,16.2-29,6.6,0,14.7.4,14.7,8.2Z"/>
    </g>
    <g>
      <path class="cls-4" d="M7.16,71.5c0-9.8-.4-19.3-.4-27.8,0-13.8,5.4-17.9,19.2-17.9,11.3,0,21.7,4.4,21.7,15.3,0,22.6-21,11.6-21,21.9,0,4.5.5,13.5.5,17.1,0,6.4-1.1,8.3-7.8,8.3-8.8,0-12.2-4.4-12.2-16.9ZM28.97,38.7c-2.3,0-4.2.9-4.2,3.9,0,1.9,1.2,2.5,3.1,2.5,2.3,0,4.7-1.2,4.7-3.4,0-1.8-1.6-3-3.6-3Z"/>
      <path class="cls-3" d="M89.07,41.4c0,10.4-5.7,10.9-5.7,15.5,0,6.3,7.7,15.8,7.7,26.5,0,2.4-3,5.1-7.5,5.1-11.9,0-9.9-27.6-14.6-27.6-5.4,0,1.4,27.5-9.3,27.5-7.9,0-8.6-9-8.6-15.7v-9.7c0-5.1.3-10.3.3-15.4,0-19.2,2.9-22.2,22-22.2,9.4,0,15.7,4.8,15.7,16ZM70.16,39.2c-1.4,0-2,.2-2,1.8,0,1,.1,4.1.2,5,.1.7.2.9.5.9,1.9,0,5.5-3,5.5-5.3,0-1.9-2.8-2.4-4.2-2.4Z"/>
      <path class="cls-2" d="M93.16,67c0-2.9-.1-6.4-.1-10.1,0-13.7.9-30.8,9.5-30.8s9.4,12.6,9.4,26.9v17c0,8.5-.7,18.5-8.1,18.5-9.5,0-10.7-11.2-10.7-21.5Z"/>
      <path class="cls-6" d="M129.06,88.5c-9.3,0-12.7-3.7-12.7-12.4,0-9.6-.2-19.6-.2-29.2,0-9,.3-20,10.8-20,16.2,0,31.4,11,31.4,31,0,18.3-9.4,30.6-29.3,30.6ZM131.86,48.3c-1,0-1.1.6-1.1,2.5,0,2.6.2,9.6.3,12.2.1,2.3-.1,3.4,1.2,3.4,4.1,0,8.8-4.1,8.8-8.8,0-5.1-5.4-9.3-9.2-9.3Z"/>
      <path class="cls-7" d="M192.66,35.2c0,8.3-15,2.5-15,9.8,0,4.8,13,3.4,13,11.5,0,7.1-11.6,5.9-11.6,8.9,0,8.7,16.3-.3,16.3,11.7,0,9.2-9.1,11.4-17.8,11.4-15.2,0-15.8-15.2-15.8-30.9v-1.6c0-14.7.3-29,16.2-29,6.6,0,14.7.4,14.7,8.2Z"/>
    </g>
    <g>
      <path d="M218.97,72.86c1.61.51,15.96-14.66,14.01-22.19s-12.6-2.59-14.34,4.62c-3.34-3.75-4.63-7.17-10.26-7.24-2.44.22-4.96.74-4.04,6.59s11.93,17.36,14.63,18.22Z"/>
      <path class="cls-8" d="M218.67,73.95c.89.2,1.69-.36,2.36-.87,1.15-.87,2.19-1.88,3.19-2.93,2.66-2.79,5.09-5.89,7.05-9.22,1.69-2.87,3.44-6.42,2.93-9.86-.56-3.8-3.78-5.87-7.46-5.09-4.33.92-8.09,4.77-9.18,9.01l1.88-.5c-2.52-2.86-4.54-6.41-8.54-7.29-2.7-.6-6.32-.31-7.46,2.67-1.21,3.16.05,6.82,1.65,9.59,1.83,3.18,4.22,6.08,6.71,8.76,1.24,1.33,2.54,2.63,3.94,3.81.89.74,1.83,1.54,2.93,1.93,1.37.48,1.96-1.69.6-2.17-.03,0-.46-.24-.69-.4-.38-.25-.74-.53-1.08-.81-.98-.81-1.91-1.69-2.81-2.6-2.23-2.24-4.31-4.65-6.12-7.25-1.58-2.27-3.08-4.7-3.26-7.53-.07-1.13-.12-2.72.93-3.45.8-.56,2.02-.61,2.95-.53,4.21.34,6.15,4.01,8.67,6.88.56.64,1.68.29,1.88-.5.82-3.2,3.42-6.02,6.54-7.13,2.73-.97,5.4,0,5.74,3.15.31,2.8-1.26,5.74-2.62,8.07-1.68,2.87-3.71,5.54-5.94,8-.96,1.06-1.96,2.09-3.04,3.03-.33.29-.67.57-1.04.81-.5.32-.57.16-.1.26-1.41-.32-2.01,1.85-.6,2.17Z"/>
    </g>
    <g>
      <path class="cls-1" d="M221.4,70.44c1.61.51,15.96-14.66,14.01-22.19s-12.6-2.59-14.34,4.62c-3.34-3.75-4.63-7.17-10.26-7.24-2.44.22-4.96.74-4.04,6.59s11.93,17.36,14.63,18.22Z"/>
      <path class="cls-8" d="M221.1,71.52c.89.2,1.69-.36,2.36-.87,1.15-.87,2.19-1.88,3.19-2.93,2.66-2.79,5.09-5.89,7.05-9.22,1.69-2.87,3.44-6.42,2.93-9.86-.56-3.8-3.78-5.87-7.46-5.09-4.33.92-8.09,4.77-9.18,9.01l1.88-.5c-2.52-2.86-4.54-6.41-8.54-7.29-2.7-.6-6.32-.31-7.46,2.67-1.21,3.16.05,6.82,1.65,9.59,1.83,3.18,4.22,6.08,6.71,8.76,1.24,1.33,2.54,2.63,3.94,3.81.89.74,1.83,1.54,2.93,1.93,1.37.48,1.96-1.69.6-2.17-.03,0-.46-.24-.69-.4-.38-.25-.74-.53-1.08-.81-.98-.81-1.91-1.69-2.81-2.6-2.23-2.24-4.31-4.65-6.12-7.25-1.58-2.27-3.08-4.7-3.26-7.53-.07-1.13-.12-2.72.93-3.45.8-.56,2.02-.61,2.95-.53,4.21.34,6.15,4.01,8.67,6.88.56.64,1.68.29,1.88-.5.82-3.2,3.42-6.02,6.54-7.13,2.73-.97,5.4,0,5.74,3.15.31,2.8-1.26,5.74-2.62,8.07-1.68,2.87-3.71,5.54-5.94,8-.96,1.06-1.96,2.09-3.04,3.03-.33.29-.67.57-1.04.81-.5.32-.57.16-.1.26-1.41-.32-2.01,1.85-.6,2.17Z"/>
    </g>
  </g>
</svg>