<?xml version="1.0" encoding="UTF-8"?> <svg xmlns="http://www.w3.org/2000/svg" width="79" height="104" viewBox="0 0 79 104" fill="none"><g clip-path="url(#clip0_194_69)"><path d="M0.511633 55.9C0.0566304 55.1584 0.0295206 52.7592 0.935469 52.0876C2.37213 51.0224 13.4663 50.9153 17.4257 49.7645C29.2737 46.3209 32.9521 34.6336 36.1489 23.5974C37.0544 20.4712 40.569 0.561329 41.7252 0.301456C42.5606 0.1137 44.3244 0.278673 45.0254 0.774103C47.7215 2.67958 43.2638 32.3852 49.2878 40.6109C54.7033 48.0055 77.4099 49.5327 78.1558 52.6821C79.2389 57.2555 61.0167 55.724 57.0178 57.1928C39.5863 63.5956 42.8538 85.2183 41.2115 99.7494C41.0846 100.873 40.9893 102.653 39.7334 103.053C34.9489 104.578 36.7085 95.5756 36.4142 92.9917C34.716 78.0828 32.1122 60.8915 14.6628 57.4108C11.7802 56.8359 1.45582 57.439 0.511633 55.9Z" fill="white"></path></g><defs><clipPath id="clip0_194_69"><rect width="78" height="103" fill="white" transform="translate(0.202148 0.226074)"></rect></clipPath></defs></svg> 