<?xml version="1.0" encoding="UTF-8"?>
<svg id="Ebene_2" data-name="Ebene 2" xmlns="http://www.w3.org/2000/svg" viewBox="0 0 184.93 47.39">
  <defs>
    <style>
      .cls-1 {
        fill: #fff;
        stroke: #1d1d1b;
        stroke-miterlimit: 10;
        stroke-width: 2.02px;
      }
    </style>
  </defs>
  <g id="full">
    <g>
      <path class="cls-1" d="M15.97,26.54c.2.03.21-.13.21-.45.01-1.63-1.75-3.64-7.39-3.63-5.65,0-8.54-4.26-7.61-9.17.7-4.56,4.72-7.86,9.13-9.1,7.03-1.68,20.67-2.22,19.34,7.58-.57,5.97-8.13.34-10.87,2.88-.93.61,6.9.96,10.07,3.15,7.24,4.99,2.66,16.96-5.39,18.83-7.67,2.28-23.62,2.56-21.19-8.85,1.3-4.6,8.09-5.87,11.32-2.98.6.48,1.58,1.37,2.13,1.66l.24.09Z"/>
      <path class="cls-1" d="M39.54,10.4c6.33-4.76,17.11-.65,18.45,7.04,2.44,14.06-6.05,20.06-15.38,18.55-1.99-.32,1.12,5.94-.5,8.69-1.61,2.75-8.44,2.04-10.07-1.21-1.24-2.25-.96-3.58-1-6.78,0-3.76,0-9.57,0-13.64.2-4.62-4.6-13.37,3.01-13.85,2.92-.02,4.18,2.24,5.49,1.21ZM44.28,26.39c.19.71,1.08.58,1.2.39.12-.19.18-.51.18-.98v-2.62c0-1.64-.04-2.4-.21-3.27-.16-.88-1.09-.9-1.36-.18-.26.72-.01,5.94.18,6.65Z"/>
      <path class="cls-1" d="M81.34,24.99c.05,2.18,1.9,4.32,1.06,6.39-3.98,9.78-13.02,2.17-13.42,2.71-1.08,1.77-4.48,2.47-6.47,2.16-4.7-.74-8.23-4.19-8.16-9.39-.24-6.48,5.51-10.33,11.4-9.48,2.92.39,2.7-1.48.04-1.12-2.66.36-4.25.97-7.07-.15-2.82-1.12-2.95-5.61-.27-7.74,2.67-2.13,8.89-2.74,13.27-2.12,9.09,1.17,10.71,10.74,9.62,18.08v.66ZM67.46,24.74c-.58.06-.89.3-.94.95-.04.61.35.95,1.19,1.01.58.04,1.8-.13,1.39-1.15-.41-1.02-1.06-.88-1.63-.82Z"/>
      <path class="cls-1" d="M88.71,37.31c-4.6.39-7.78-2.26-7.84-5.33-.18-3.1.08-9.62-.14-12.24-.72-2.86-2.89-6.56-1.9-9.42.48-2.88,5.1-3.82,7.42-3.3,2.31.47,2.64,2.63,2.01,4.5-.27,2.71,2.42-1.81,3.39-2.79,2.67-2.98,10.26-1.74,12.68.88,1.73,2.39,3.06,12.93-8.7,11.57-2.59-.3-1.6,2.69-1.33,4.99.86,7.43-.99,10.76-5.59,11.15Z"/>
      <path class="cls-1" d="M112.13,29.13c-.52-.24-.31,1.74.3,3.52,2.21,6.71-7.66,7.71-10.41,3.7-2.75-4.02-2.48-8.5-2.96-12.61-.29-5.75-3.06-15.72-1.1-19.71,1.95-3.98,10.72-4.04,12.81.25,1.07,2.08,1.04,4.7.84,7.15-.14,2.55-2.37,6.27-1.67,6.24,1.74-.07,3-8.29,6.83-9.29,6.15-2.16,12.15,3.86,9.05,9.89-.52,1.69-3.27,3.23-3.41,4.7.05.53.84.87,1.89,1.38,2.05.86,3.68,2.55,3.91,4.86,1.38,6.87-7.97,10.5-12.35,5.68-1.56-1.31-2.41-4.22-3.53-5.61l-.2-.14Z"/>
      <path class="cls-1" d="M140.23,23.04c.14.44.35.48.55.11,1.59-4.02,0-12.03,3.44-14.27,3.16-1.8,8.92-1.01,10.6,2.03,1.61,3.28.75,8.62.09,12.24-4.34,23.62-16.41,23.67-23.76,20.72-7.35-2.95-3.4-9.86,1.54-9.81.17-.31,7.88,1.39,6.34.06-2.07-1.14-5.53-1.38-7.18-3.44-2.99-3.09-4.44-7.26-5.68-11.35-.92-3.46-2-8.41,2.04-10.75,4.04-2.34,10.58-.78,11.7,4.1.85,3.09-.14,6.97.23,9.96l.1.39Z"/>
      <path class="cls-1" d="M173.23,16.31c-.69.25-.01.65,1.51,1.01,6.42,1.53,10.21,6.92,8.93,12.62-2.24,9.93-21.71,8.67-25.4.64-.95-2.21-1.11-4.73,2.39-6.26,3.5-1.53,9.59,3.7,9.21,2.47-.38-1.23-5.81-2.1-7.67-3.34-7.25-4.87-2.12-15.33,5.98-16.17,3.62-.38,16.55.15,15.24,7.27-.8,6.04-6.99.79-9.86,1.68l-.33.09Z"/>
      <path class="cls-1" d="M157.69,12.74c-.08-.74-.63-.56-1.88-.82-8.58-1.79-5.65-12.96,3.66-10.58,9.31,2.38,3.05,20.02-6.25,15.62-2.75-1.3-1.86-5.01.73-4.3,1.35.37,3.83.82,3.74.07Z"/>
    </g>
  </g>
</svg>